<svg width="191" height="192" xmlns="http://www.w3.org/2000/svg"><g fill-rule="nonzero" fill="none"><path d="M54.519 68.46s-.39.65-1.04 1.819-1.82 2.987-2.991 5.325a79.636 79.636 0 0 0-4.161 8.703c-1.43 3.378-2.86 7.405-3.64 12.081a36.832 36.832 0 0 0 .13 15.068c.39 1.3.65 2.728 1.17 4.027l.78 1.948c.26.65.65 1.3.91 1.949.39.65.65 1.299 1.04 1.948.39.65.91 1.3 1.3 1.949l1.69 1.689c.651.52 1.301.909 1.951 1.428 2.73 1.69 5.982 2.598 9.232 2.598 3.251 0 6.372-.65 9.363-1.948 1.43-.65 2.99-1.559 4.29-2.598 1.3-1.04 2.471-2.468 3.381-4.157.78-1.688 1.3-3.767.78-5.715-.39-1.949-1.56-3.897-3.25-5.066a8.445 8.445 0 0 0-5.852-1.43c-.52 0-1.04.26-1.56.26-.52.13-.91.39-1.43.52-.78.39-1.56.78-2.21 1.43-1.431 1.038-2.731 2.337-3.642 3.766-.91 1.559-1.56 3.118-1.95 4.806-.78 3.378-.39 6.755.52 9.873.91 3.117 2.34 5.845 4.161 8.313 3.64 4.936 8.712 8.573 14.043 10.262 1.3.52 2.731.78 4.031 1.04l1.95.389c.65.13 1.301.13 1.951.13.65 0 1.3.13 1.95.13.65 0 1.301 0 1.951-.13 1.3 0 2.47-.26 3.771-.39 4.941-.78 9.102-2.988 12.223-5.326 3.25-2.338 5.591-4.676 7.542-6.495 1.82-1.818 3.25-3.377 4.29-4.286l1.431-1.43-4.031-4.286-1.56 1.559c-.91 1.04-2.34 2.468-4.161 4.417-1.82 1.818-3.901 4.026-6.632 5.975-2.73 1.948-5.981 3.767-10.012 4.546-3.901.78-8.582.52-13.003-.78a24.789 24.789 0 0 1-11.833-8.313c-1.56-2.078-2.86-4.286-3.64-6.754-.781-2.468-1.041-5.066-.521-7.534.52-2.468 1.82-4.547 3.77-6.105.521-.39 1.041-.65 1.561-1.04l.65-.26c.26 0 .52-.13.78-.13 1.04-.13 1.951.13 2.861.65 1.69 1.17 2.34 3.507 1.3 5.586-1.04 2.078-3.25 3.767-5.59 4.936-4.812 2.338-10.793 2.468-14.954-.13-.52-.39-1.04-.65-1.43-1.04l-1.3-1.298-1.041-1.43c-.39-.519-.65-1.168-.91-1.688s-.65-1.169-.91-1.689c-.26-.649-.52-1.169-.65-1.818-.52-1.17-.78-2.338-1.171-3.507-1.17-4.807-1.04-9.483-.39-13.77.65-4.286 1.95-8.183 3.25-11.43 1.301-3.378 2.601-6.236 3.902-8.444 1.17-2.338 2.21-4.027 2.86-5.326.65-1.169 1.04-1.818 1.04-1.818l-2.34-1.559z" fill="#B0BEC5"/><path d="M73.373 119.51c.26-.39.52-.78.65-1.04 1.04-2.078.52-4.416-1.3-5.585-.91-.52-1.82-.78-2.86-.65-.26 0-.52.13-.78.13l-.65.26c-.52.39-1.171.65-1.561 1.04l-.78.779a7.91 7.91 0 0 1 2.08-2.079c.52-.39 1.04-.649 1.56-1.039l.65-.26c.26 0 .52-.13.78-.13 1.041-.13 1.951.13 2.861.65 1.69 1.17 2.341 3.507 1.3 5.586-.52.65-1.17 1.558-1.95 2.338zm.91 4.806c-1.3 1.17-2.73 1.948-4.29 2.598-1.43.65-2.861 1.04-4.291 1.429-.13-.39-.26-.78-.52-1.04 2.08-.26 4.03-.909 5.98-1.688 1.431-.65 2.992-1.559 4.292-2.598.26-.26.52-.52.91-.78-.52.65-1.3 1.43-2.08 2.08zm-14.433-6.885c-.52 2.079-.52 4.157-.26 6.106-.52-.13-.91-.13-1.43-.26 0-1.429 0-2.988.39-4.417.39-1.688 1.04-3.377 1.95-4.806.52-.91 1.17-1.559 1.95-2.338-.26.26-.52.65-.65.91-.91 1.428-1.56 3.117-1.95 4.805zM42.556 96.388c.78-4.546 2.21-8.573 3.641-12.08 1.43-3.378 2.86-6.365 4.161-8.704 1.17-2.338 2.34-4.156 2.99-5.325.78-1.17 1.04-1.819 1.04-1.819l.261.13c0 .13-.13.13-.13.26-.65 1.169-1.82 2.987-2.99 5.326a79.63 79.63 0 0 0-4.162 8.703c-1.43 3.377-2.86 7.404-3.64 12.08a36.832 36.832 0 0 0 .13 15.068c.39 1.3.65 2.728 1.17 4.027l.78 1.949c.26.65.65 1.299.91 1.948.39.65.65 1.3 1.04 1.949s.91 1.298 1.3 1.948l1.691 1.689c.65.52 1.3.909 1.95 1.429 2.341 1.428 4.942 2.208 7.672 2.468a27.727 27.727 0 0 0 4.161 8.313c3.641 4.936 8.712 8.573 14.044 10.262 1.3.52 2.73.78 4.03 1.04l1.951.389c.65.13 1.3.13 1.95.13.65 0 1.3.13 1.95.13.651 0 1.301 0 1.951-.13 1.3 0 2.471-.26 3.771-.39 4.941-.78 9.102-2.988 12.223-5.326 3.25-2.338 5.591-4.676 7.542-6.495 1.82-1.818 3.25-3.377 4.29-4.286l.131-.13.13.13-1.43 1.429-4.291 4.286c-1.95 1.949-4.291 4.287-7.542 6.495-3.12 2.208-7.282 4.417-12.223 5.326-1.17.13-2.47.39-3.77.39-.651 0-1.301 0-1.951.13-.65 0-1.3-.13-1.95-.13-.65 0-1.301-.13-1.951-.13l-1.95-.39c-1.301-.26-2.731-.52-4.032-1.04-5.33-1.818-10.402-5.325-14.043-10.261-1.82-2.468-3.25-5.196-4.16-8.313-2.732-.26-5.332-1.04-7.673-2.469-.65-.52-1.3-.909-1.95-1.428l-1.69-1.69c-.39-.649-.91-1.298-1.3-1.948-.391-.65-.651-1.299-1.041-1.948-.26-.65-.65-1.299-.91-1.948l-.78-1.949c-.52-1.299-.78-2.598-1.17-4.027-1.171-5.326-.911-10.522-.13-15.068z" fill="#78909C"/><path d="m52.958 70.928 1.95 1.689c.26-.39.39-.78.65-1.04.65-1.169 1.041-1.818 1.041-1.818l-2.21-1.299s-.39.65-1.04 1.819c-.13.26-.26.39-.39.65z" fill="#546E7A"/><path d="M60.37 127.298c-.39-1.169-.65-2.857-.78-3.767-.13-1.039-1.43-1.299-1.43-.26 0 1.04.13 3.248.91 5.456.91 2.209 1.3-1.429 1.3-1.429zM65.312 127.17c-1.17.26-1.3.13-1.69.26.13.52.26.78.39 1.169.39-.13 1.04-.13 1.69-.39.78-.13-.39-1.039-.39-1.039z" fill="#78909C"/><path d="M56.73 128.337c.78.13 1.56.26 2.47.39-.13-.65-.26-1.17-.39-1.689-.13-.78-.26-1.559-.39-2.078h-.13c-.39 0-.78-.13-1.17-.26-.26.91-.52 2.598-.39 3.637z" fill="#546E7A"/><g><path d="M108.222 131.197c-.39 1.688.65 3.507 2.47 3.897l42.26 10.391c1.82.39 3.64-.65 4.031-2.338l10.402-42.346c.39-1.69-.65-3.508-2.47-3.897l-42.26-10.392c-1.82-.39-3.64.65-4.031 2.338l-10.402 42.347z" fill="#90A4AE"/><path d="M131.107 145.355v.52c-.13 3.377-.13 20.393 1.3 32.474.13.52.13.909.13 1.429v.26c.26 1.428.39 2.857.65 4.156.13.39.13.65.26 1.04.52 2.208 1.04 3.896 1.69 4.935.13.13.13.26.26.39.39.52.78.78 1.17.78h.911c.13 0 .26 0 .52-.13.13 0 .26-.13.39-.13.52-.26 1.04-.52 1.43-.91.13-.13.39-.26.52-.39l.65-.649c.261-.26.391-.52.651-.78.39-.519.78-1.168 1.17-1.688.13-.26.39-.65.52-1.04.78-1.298 1.43-2.857 2.211-4.546.13-.26.26-.52.26-.779.13-.13.13-.39.26-.52.13-.39.26-.649.39-1.039 4.161-10.911 7.152-25.98 7.672-34.423 0-.26-22.755-1.688-23.015 1.04z" fill="#CFD8DC"/><path d="M132.668 179.913v.26c.26 1.429.39 2.858.65 4.157.13.39.13.649.26 1.039.52 2.208 1.04 3.897 1.69 4.936.13.13.13.26.26.39.39.52.78.779 1.17.779h.911c.13 0 .26 0 .52-.13.13 0 .26-.13.39-.13.52-.26 1.04-.52 1.43-.91.13-.13.39-.259.52-.389l.65-.65c.26-.26.39-.519.651-.779.39-.52.78-1.169 1.17-1.688.13-.26.39-.65.52-1.04.78-1.299 1.43-2.857 2.21-4.546.13-.26.26-.52.26-.78.131-.13.131-.39.261-.519-1.56-.65-3.25-1.04-5.071-1.04-1.17-.13-2.21 0-3.381.13-1.95-.26-3.64.13-5.071.91z" fill="#263238"/><path d="M131.758 179.516c.13.26.26.52.65.52h.39c1.43-.39 3.12-.65 4.811-.78 1.04-.13 2.08 0 3.12 0 1.691.13 3.382.39 4.942.78h.13c.52.13.91-.13 1.04-.65.13-.39-.13-.91-.52-1.04-1.69-.519-3.51-.779-5.331-.909-1.17-.13-2.34-.13-3.511 0-1.82.13-3.51.39-4.941.91h-.13c-.52.26-.78.78-.65 1.169z" fill="#E64A19"/><path d="M131.757 179.524c.13.26.26.52.65.52h.26c.26 1.428.39 2.857.65 4.156.13.39.13.65.26 1.04.52 2.207 1.04 3.896 1.69 4.935.13.13.13.26.261.39.39.52.78.78 1.17.78h.91c.13 0 .26 0 .52-.13.13 0 .26-.13.39-.13.52-.26 1.04-.52 1.431-.91-.91-2.728-1.69-6.495-2.21-10.781 0-.26-.13-.52-.13-.78s0-.65-.13-.909c-1.04-9.223-1.17-20.654-.13-30.916-2.601-.26-4.292-.39-6.112-.779-.13 3.377-.13 20.394 1.3 32.475h-.13c-.52.13-.78.649-.65 1.039z" opacity=".2" fill="#212121"/><path d="M100.81 167.443c0 .39-.13.78-.13 1.04v.649c0 .39-.13.779-.13 1.169s0 .65-.13 1.039c-.13 2.988-.13 5.585.39 7.534 0 .26.13.52.26.78s.13.519.26.909c.13.26.13.39.26.65.13.259.26.389.39.519l.39.39.39.39c.13.129.26.259.39.259.13.13.26.13.39.26.26.13.52.13.78 0h.26c.39-.13.91-.39 1.431-.78.13-.13.26-.26.39-.26.39-.39.78-.649 1.3-1.169.26-.26.52-.65.91-1.039.65-.65 1.301-1.558 1.951-2.338.26-.39.65-.91 1.04-1.299.26-.39.65-.78.91-1.299 0-.13.13-.13.13-.26l.78-1.169c6.892-10.132 14.694-24.94 16.255-28.058.13-.26.13-.39.26-.52.78-1.688-8.062-6.234-14.044-9.222-3.12-1.559-5.59-2.598-5.59-2.598-3.642 8.054-8.063 22.862-9.493 34.423z" fill="#CFD8DC"/><path d="M100.68 168.48v.65c0 .39-.13.779-.13 1.169s0 .649-.13 1.039c-.13 2.987-.13 5.585.39 7.534 0 .26.13.52.26.78.13.259.13.519.26.909.13.26.13.39.26.649.13.26.26.39.39.52l.39.39.39.389c.13.13.26.26.39.26.13.13.26.13.39.26.26.13.521.13.781 0h.26c.39-.13.91-.39 1.43-.78.13-.13.26-.26.39-.26.39-.39.78-.65 1.3-1.169.26-.26.521-.65.911-1.039.65-.65 1.3-1.559 1.95-2.338.26-.39.65-.91 1.04-1.299.26-.39.65-.78.911-1.299 0-.13.13-.13.13-.26-1.56-1.948-3.64-3.637-6.371-4.806-.65-.26-1.17-.52-1.82-.65-1.431-.26-2.602-.52-3.772-.649z" fill="#263238"/><path d="M99.9 168.09c-.13.39.26.909.65.909h.13c1.04.26 2.21.52 3.38.909.52.26 1.171.39 1.691.65 2.47 1.169 4.811 2.597 6.502 4.156l.13.13c.13.13.13.13.26.13.26.13.65 0 .78-.26.26-.39.26-.91 0-1.169l-.13-.13c-1.82-1.688-4.161-3.247-6.762-4.416l-1.95-.78c-1.17-.39-2.47-.78-3.641-.909-.52 0-.91.39-1.04.78z" fill="#E64A19"/><path d="M109.522 134.829c-.26.91 1.82 2.468 4.811 4.027 4.942 2.728 12.353 5.715 15.084 6.625.39.13.65.26.78.26.26 0 .52.13.78.13.39.13.91.13 1.56.26.26 0 .52 0 .78.13 1.041.129 2.211.259 3.382.389h.39c6.761.65 15.994.909 16.514-.91 0-.26.13-.779.26-1.428.26-1.17.52-2.858.78-5.066.13-.52.13-1.04.26-1.69v-.129c0-.26.13-.52.13-.78 0-.519.13-1.039.13-1.688 0-.26 0-.52.13-.78v-.13c0-.519.13-1.038.13-1.558s.13-1.17.13-1.689c.13-2.208.26-4.676.13-7.014V121.839c0-.52 0-1.039-.13-1.688a49.78 49.78 0 0 0-1.17-8.834c-.13-.649-.26-1.298-.52-1.948-1.43-5.456-4.031-10.002-8.322-12.34-.91-.52-1.95-.91-3.121-1.17-1.04-.26-2.08-.389-3.12-.389-5.072 0-9.493 2.988-13.524 7.274 0 0-.13.13-.13.26a22.808 22.808 0 0 0-3.12 3.897 51.4 51.4 0 0 0-2.861 4.416c-.26.39-.39.78-.65 1.04 0 .13-.13.13-.13.26 0 0-.13.13-.13.26s-.13.26-.13.26c-.26.389-.52.908-.78 1.428 0 0 0 .13-.13.13-.26.39-.39.78-.65 1.169a55.456 55.456 0 0 0-2.341 4.936c-.26.52-.52 1.04-.65 1.559-.26.52-.39.91-.65 1.429v.13c0 .13-.13.26-.13.39-.39.909-.651 1.688-1.041 2.597v.13c-.26.52-.39 1.04-.52 1.43-.78 1.947-1.3 3.506-1.56 4.675-.39.91-.52 1.43-.65 1.689z" fill="#CFD8DC"/><path d="M132.147 138.472c2.34.52 18.854 2.338 23.145.65.39-.13.65-.65.39-1.04-.13-.39-.65-.649-1.04-.39-3.64 1.43-19.504 0-22.105-.649-2.6-.65-17.294-6.624-19.895-9.612-.26-.39-.78-.39-1.17-.13-.39.26-.39.78-.13 1.17 2.99 3.376 18.464 9.482 20.805 10.001z" fill="#E64A19"/><path d="m108.612 108.852 58.513 14.419c3.771-15.588-5.201-31.176-20.284-35.852-.52-.26-1.17-.39-1.69-.52-8.323-2.078-16.645-.39-23.276 3.767-1.56 1.04-3.121 2.209-4.551 3.508-.91.78-1.82 1.688-2.601 2.728a31.095 31.095 0 0 0-4.681 7.663c-.52 1.3-1.04 2.728-1.43 4.287z" fill="#CFD8DC"/><path d="M114.723 104.956c0 1.819.39 3.638 1.04 5.586 0 .13.13.26.13.39v.13c.13.26.13.39.26.65.39.908.78 1.818 1.3 2.727.13.26.26.39.39.52.26.52.65 1.039.91 1.558l34.069 8.444c1.04-.26 1.95-.65 2.86-.91h.13c.13 0 .39-.13.52-.26 1.3-.519 2.471-1.168 3.381-1.818.13 0 .13-.13.26-.13s.13-.13.26-.13c1.56-1.169 2.861-2.468 3.771-3.767 1.82-2.858 2.341-6.105 1.69-9.482-.13-.39-.13-.91-.26-1.3-.52-2.208-1.56-4.416-2.86-6.494-3.77-5.976-10.012-11.301-16.254-13.25-.39-.13-.78-.26-1.3-.39-.39-.13-.91-.26-1.3-.26-6.632-1.168-14.174.26-20.025 3.768-.26.13-.39.26-.65.39-1.17.779-2.34 1.688-3.381 2.727-.65.65-1.3 1.43-1.95 2.209-.13.13-.26.26-.26.39-1.82 2.337-2.861 5.325-2.731 8.702z" fill="#CFD8DC"/><path d="m88.977 104.7.78 1.429 2.6 4.806.781 1.429.78-.39c1.82-.78 4.291-1.429 5.852-2.078 3.25-1.17 8.972-.78 12.092-.13.65.13 1.3.26 1.82.52.781.26 1.431.52 2.081.779 1.17.52 2.21 1.299 3.121 1.948.91.78 1.56 1.56 1.82 2.339.52 1.169 1.04 1.688 1.82 1.948.391.13.781.26 1.171.52 1.04.39 2.47 1.039 4.291 2.728l1.17-1.43 3.381-4.286 11.833-15.328c-1.56-1.429-3.25-2.598-5.071-3.637-4.681-2.858-10.143-4.547-15.734-5.066-.26 0-.39 0-.65-.13h-1.3c-1.82-.13-3.641 0-5.592.26-2.08.13-4.16.52-6.241 1.039-.13 0-.26.13-.39.13-3.511.91-5.722 1.429-12.483 6.105-2.34 1.299-4.161 3.507-6.372 5.196-.26.39-.65.78-.91 1.04-.13 0-.39.129-.65.259z" fill="#CFD8DC"/><path d="M81.175 116.39c.13.26.26.39.39.52 3.121 4.027 2.21-5.456 5.982-4.286 1.43 1.299-2.991 5.325-.65 5.845h.39c1.04.13 3.12-2.468 5.33-5.716.13-.26.261-.52.391-.649l-.78-1.429-2.6-4.806-.781-1.429c-.26.13-.52.13-.78.26-5.982 1.948-9.882 7.274-6.892 11.69z" fill="#CFD8DC"/><path d="M88.197 104.828c0 .13 0 .13.13.26l.65 1.169 2.86 5.196.65 1.169c.13.13.13.26.26.26.131 0 .131.13.261.13.26 0 .39 0 .65-.13.39-.26.52-.65.39-1.04l-.78-1.558-2.47-4.547-.78-1.429c-.26-.39-.78-.52-1.171-.39-.52.13-.78.52-.65.91z" fill="#E64A19"/><path d="m109.522 91.97.91 2.857.91 3.117 5.982-1.948.39-.13-.13-.26-.52-1.688-.91-2.988c-2.08.13-4.161.52-6.242 1.04h-.39z" fill="#D84315"/><path d="m139.689 98.33 1.04 5.975 2.34 13.12 1.041 5.325.26 1.819c.78-.26 1.43-.39 2.08-.39 1.04-.13 1.821-.13 2.471-.13h.65c1.43.13 2.34.39 3.771-.78.52-.389 1.17-.779 2.08-1.038.13 0 .13 0 .26-.13 1.171-.26 2.471-.52 4.032-.39h.26c.13 0 .39 0 .52.13.65 0 1.3.13 1.95.26.39.13.78.13 1.3.26 3.121.909 8.323 3.117 10.663 5.715l.13.13c1.17 1.299 2.99 2.988 4.291 4.546.13.26.39.39.52.65l1.69-1.17 5.332-3.636c-.26-.13-.39-.39-.52-.65-.26-.39-.26-.91-.39-1.299-1.17-2.598-1.82-5.326-3.251-7.534-3.77-7.404-5.461-8.833-8.192-11.301-.13-.13-.26-.13-.39-.26-1.56-1.429-3.25-2.728-4.941-3.767-1.56-1.04-3.12-1.948-4.811-2.728-.39-.26-.91-.39-1.3-.65-5.332-2.337-11.183-3.377-16.905-2.987-1.04 0-2.21.13-3.25.39-.91.13-1.82.26-2.731.52z" fill="#CFD8DC"/><path d="M179.218 133.406c0 .26 0 .52.13.78.39 3.897 1.04 7.144 2.08 7.534.13 0 .13 0 .26.13 2.081.65 1.041-2.988 1.561-4.677.13-.39.39-.78.65-.78 4.161.78-1.69 9.224 3.771 6.366 0 0 .13 0 .13-.13 4.681-2.468 3.771-8.963-.78-13.51-.26-.13-.39-.39-.65-.519l-5.461 3.767-1.69 1.04z" fill="#CFD8DC"/><path d="M178.568 133.92c.13.13.26.26.52.39h.26c.13 0 .26 0 .39-.13l1.43-.909 5.722-3.897.13-.13c.26-.26.26-.65 0-1.039-.26-.39-.78-.52-1.17-.26l-5.332 3.637-1.82 1.17c-.26.26-.39.779-.13 1.168z" fill="#E64A19"/><path d="m164.915 107.427 4.681 4.676 4.421-4.286c-.13-.13-.26-.13-.39-.26-1.56-1.429-3.25-2.728-4.941-3.767l-3.771 3.637zM128.082 113.637a5.069 5.069 0 0 1-3.711-6.132 5.069 5.069 0 0 1 6.136-3.706 5.069 5.069 0 0 1 3.71 6.132 5.069 5.069 0 0 1-6.135 3.706z" fill="#1A237E"/><path d="m135.398 112.362-9.752-9.612 4.03 13.12 1.17-4.547z" fill="#D84315"/><path d="m145.125 107.463 9.72 2.4-1.214 4.918-9.72-2.399z" fill="#78909C"/><path d="m91.708 111.457.65-.65c.13-.13.39-.39.65-.52 2.21-1.948 7.802-5.975 17.034-5.715 1.43 0 2.99.13 4.681.39 2.47.39 5.071 1.039 7.932 2.208.26 1.819.39 3.637.39 5.196 0 1.689-.13 3.377-.39 4.936v.13c-.39 2.078-.78 4.027-1.43 5.975-.13.52-.39 1.04-.65 1.559-.26.52-.39 1.04-.65 1.559-.39 1.039-.91 2.078-1.431 3.117-.13.39-.39.78-.52 1.04-.26.519-.52 1.039-.65 1.558-.65 1.17-1.17 2.338-1.69 3.637-.39.78-.65 1.56-1.041 2.468-.13.13-.13.39-.26.65-2.08 5.585-6.892 18.315-9.882 29.487l-.26.909c-.13.26-.13.52-.26.78-1.17 4.416-1.95 8.573-2.081 11.82-.13-.13-.26-.39-.39-.52-.13-.26-.26-.39-.26-.649-.13-.26-.26-.52-.26-.91-.13-.26-.13-.519-.26-.779-.52-1.948-.52-4.676-.39-7.534 0-.39 0-.65.13-1.039 0-.39 0-.78.13-1.169v-.13h-.13c-.52-.13-.78-.52-.65-.91.13-.389.52-.779.91-.649 1.43-11.56 5.721-26.369 9.102-34.033l1.56-4.676-.26-.26c-.26-.39-.26-.91.13-1.17.26-.259.52-.259.78-.129.26-.78.65-1.689 1.04-2.598 0-.13.13-.26.13-.39v-.13c.26-.52.39-.909.65-1.428.26-.52.39-1.04.651-1.56.78-1.558 1.56-3.247 2.34-4.935.26-.39.39-.78.65-1.17-.13-.26-.26-.39-.39-.519-.52-.91-.91-1.819-1.3-2.728-.13-.26-.13-.39-.26-.65v-.13c-.65-.259-1.43-.649-2.08-.779l-1.82-.52c-3.121-.649-8.843-1.038-12.093.13-1.56.65-4.032 1.3-5.852 2.08.13.389 0 .908-.39 1.038-.13.13-.39.13-.65.13-.13 0-.13 0-.26-.13-2.08 3.248-4.291 5.846-5.332 5.716h-.39c2.08-2.988 3.641-5.716 5.072-7.404z" fill="#212121" opacity=".2"/><g fill="#212121"><path d="M144.934 132.403a2.47 2.47 0 1 1 2.989-1.805 2.47 2.47 0 0 1-2.99 1.805z"/></g><g fill="#212121"><path d="M147.033 124.243a2.47 2.47 0 1 1 2.989-1.805 2.47 2.47 0 0 1-2.99 1.805z"/></g><g fill="#212121"><path d="M123.251 126.972a2.47 2.47 0 1 1 2.99-1.805 2.47 2.47 0 0 1-2.99 1.805z"/></g><g opacity=".2" fill="#212121"><path d="M143.46 134.314c1.04 1.299 2.47 2.208 4.421 2.598 1.82.39 4.161.65 7.022.65.13-1.04.26-2.209.39-3.378-5.851-.13-8.062-.65-9.232-2.078-.52-.78-1.56-.91-2.34-.26-.65.65-.78 1.689-.26 2.468z"/></g><g fill="#78909C"><path d="M148.79 133.662c1.951.52 4.552.65 7.803.65.91 0 1.69-.78 1.69-1.69 0-.909-.78-1.688-1.69-1.688-6.242-.13-8.582-.65-9.753-2.078-.52-.78-1.56-.91-2.34-.26-.78.52-.91 1.559-.26 2.338 1.17 1.429 2.47 2.208 4.55 2.728z"/></g><g opacity=".2" fill="#212121"><path d="M112.252 127.167c2.47 1.3 4.551 2.079 6.242 2.469 1.95.52 3.64.39 5.2-.26.781-.39 1.171-1.43.781-2.209-.39-.909-1.3-1.169-2.21-.909-1.691.78-3.771.13-8.843-2.338-.39 1.17-.78 2.208-1.17 3.247z"/></g><g fill="#78909C"><path d="M119.275 126.39c1.95.52 3.64.39 5.2-.26.781-.389 1.171-1.298.781-2.207-.39-.78-1.3-1.17-2.21-.91-1.691.78-4.031.13-9.623-2.728-.78-.39-1.82-.13-2.21.78-.39.78-.13 1.818.78 2.208 2.99 1.559 5.331 2.598 7.282 3.118z"/></g><g opacity=".2" fill="#212121"><path d="M111.342 121.2c.13-.13.13-.26.26-.39.13.39.39.78.78 1.04.52.259 1.17.519 1.69.779 2.211 1.039 4.032 1.818 5.592 2.208.26.13.52.13.78.13s.52.13.78.13c1.3.13 2.47 0 3.511-.52.13-.13.39-.26.52-.39.13.26.13.65 0 .91 0 .13-.13.26-.13.39s-.13.26-.26.26c-.13.259-.39.389-.65.519s-.39.13-.65.26h-.26c-.13.13-.26.13-.52.13s-.52.13-.65.13h-2.471c-.26 0-.39-.13-.65-.13-.13 0-.39-.13-.52-.13s-.39-.13-.52-.13-.39-.13-.65-.26-.39-.13-.65-.26c-1.041-.39-2.211-.91-3.512-1.559-.52-.26-.91-.52-1.43-.65-.52-.649-.91-1.688-.39-2.467zm33.028 7.664c0 .13.13.39.26.52.78.909 1.69 1.688 2.86 2.078.52.26 1.04.39 1.56.52 1.691.389 3.772.649 6.242.649h1.56c.52 0 .91-.13 1.171-.52 0 .13.13.26.13.52 0 .909-.78 1.688-1.69 1.688h-1.3c-1.171 0-2.341-.13-3.251-.13-.52 0-.91-.13-1.43-.13-.26 0-.52-.13-.651-.13-.26 0-.39 0-.65-.13-.26 0-.39-.13-.52-.13s-.26-.129-.52-.129c-.13 0-.26-.13-.39-.13s-.13 0-.26-.13c-.13 0-.39-.13-.52-.13l-.78-.39c-.13-.13-.39-.26-.52-.26-.261-.13-.391-.259-.521-.389s-.39-.26-.52-.52l-.52-.52c-.13-.259-.26-.389-.39-.649v-.39c.26-.519.39-.909.65-1.168z"/></g><g opacity=".2" fill="#212121"><path d="M81.175 116.39c.13.26.26.39.39.52-.26-1.82-.13-3.768 1.43-6.366 1.95-3.117 4.031-4.027 5.852-4.416.26-.13.65-.13.91-.26.13 0 .39-.13.78-.39 2.86-1.559 11.573-9.093 19.895-10.651.26 0 .65-.13 1.04-.13 2.21-.26 4.161-.52 5.721-.78.91-.13 1.82-.26 2.471-.39 2.86-.649 4.031-1.298 4.031-2.597v-.52c-.26.13-.39.26-.65.39h-1.3c-1.82-.13-3.641 0-5.592.26-2.08.13-4.16.52-6.241 1.039-.13 0-.26.13-.39.13-3.511.909-5.722 1.428-12.483 6.105-2.34 1.299-4.161 3.507-6.372 5.196-.26.39-.65.78-.91 1.039-.26-.39-.78-.52-1.17-.39-.39.13-.52.52-.39.91-6.112 1.558-10.013 6.884-7.022 11.3z"/></g><g fill="#212121" opacity=".2"><path d="M183.12 137.173c.13-.39.39-.779.65-.779 4.16.78-1.69 9.223 3.77 6.365.91-5.456.39-7.794-1.95-7.664-1.95 0-2.47 1.17-2.47 2.078zM155.683 122.106c0 .26-.13.39-.13.52 0 .259 0 .519.13.779v.52h.13c.13 0 .39-.13.52-.26 1.3-.52 2.47-1.17 3.38-1.82.13 0 .13-.13.26-.13s.391 0 .521.13c.65 0 1.3.13 1.95.26.39.13.78.13 1.3.26 3.121.91 8.323 3.118 10.663 5.716l.13.13c1.17 1.299 2.991 2.988 4.291 4.546-.39.26-.39.78-.13 1.17.13.13.26.26.52.389h.26c.39 3.897 1.04 7.144 2.08 7.534.131 0 .131 0 .261.13-.13-1.948.13-5.975-.39-8.703 0-.26-.13-.65-.26-.91s-.13-.52-.39-.779c-1.3-2.728-5.852-8.703-12.743-12.21-1.17-.65-2.34-1.17-3.641-1.559-2.73-.91-4.551-1.17-6.242-1.299-.78 1.429-1.3 2.338-1.82 4.027-.39.39-.52.91-.65 1.559z"/></g><g fill="#212121" opacity=".2"><path d="M117.454 114.309c.13.26.26.39.39.52-.26.389-.39.779-.65 1.168h.13s.26-.52.52-1.169c0 0 0-.13.13-.13 0-.13.13-.26.26-.52.13-.259.39-.649.52-.909 0-.13.13-.26.13-.26l.13-.13c.13-.13.13-.259.26-.259l-.26.26c-.26.26-.65.78-1.17 1.169-.26.13-.26.26-.39.26zM115.893 111.06c.13.26.13.39.26.65.13-.13.39-.13.52-.26.26-.13.65-.26.91-.39s.651-.26.651-.26c-.13 0-.65.13-1.3.13h-.39c-.13 0-.39 0-.65.13.13 0 0 0 0 0zM155.293 122.23c.13.26.13.65.39 1.17 0 .129.13.259.13.389v.13c.13 0 .39-.13.52-.26 0 0 0-.13-.13-.13-.26-.26-.39-.65-.65-.78 0 0 0-.13-.13-.13.13-.26 0-.389-.13-.389zM157.893 120.29s.78.39 1.43 1.04l.13.13.26.259s0 .13.13.13.13-.13.26-.13.391 0 .521.13c0-.13-.13-.13-.13-.26l-.13-.13c-.13-.13-.39-.26-.65-.39-.91-.52-1.82-.779-1.82-.779z"/></g><g><path d="M142.29 98.204c8.712 2.078 14.954 2.468 19.895 1.169.91-.26 1.43-1.17 1.17-2.079-.26-.909-1.17-1.429-2.08-1.169-4.291 1.17-10.143.78-18.205-1.169-8.062-1.948-13.393-4.416-16.774-7.404-.65-.65-1.69-.65-2.34.13-.65.65-.65 1.689.13 2.338 3.64 3.377 9.492 5.975 18.204 8.184z" fill="#263238"/><path d="M169.986 76.509c-.78 3.247.78 6.365 3.38 7.014 2.731.65 5.462-1.428 6.372-4.676l1.95-7.794c.78-3.247-.78-6.365-3.38-7.014-2.731-.65-5.462 1.429-6.372 4.676l-1.95 7.794zM118.104 63.649c-.78 3.247.78 6.365 3.38 7.014 2.731.65 5.462-1.428 6.372-4.676l1.95-7.794c.78-3.247-.78-6.365-3.38-7.014-2.731-.65-5.462 1.429-6.372 4.676l-1.95 7.794z" fill="#90A4AE"/><path d="M121.875 62.218c-5.201 21.044-.26 29.227 20.805 34.423 21.065 5.196 29.257.26 34.458-20.784 4.81-19.484-4.811-33.903-20.025-37.54-15.344-3.897-30.427 4.417-35.238 23.901z" fill="#CFD8DC"/><path d="M148.662 37.41c-8.973 2.988-16.514 10.911-19.635 23.511-5.201 21.044-.26 29.227 20.805 34.423 5.331 1.3 9.882 1.949 13.783 1.949-5.071 2.078-11.833 1.689-20.935-.52-21.065-5.196-26.006-13.25-20.805-34.423 3.901-15.977 14.694-24.42 26.787-24.94z" opacity=".2" fill="#212121"/><path d="M143.46 93.264c16.123 3.898 26.266-2.208 30.297-18.315 3.25-12.99-3.381-21.563-19.375-25.46-16.124-3.897-25.876.65-29.127 13.64-4.16 16.756 1.43 26.109 18.205 30.136z" fill="#263238"/><path d="M143.85 91.71c15.213 3.767 24.446-1.819 28.217-17.017 2.99-12.08-2.991-19.744-18.205-23.511-15.213-3.767-24.055.26-27.046 12.34-4.031 16.107.91 24.161 17.034 28.188z" fill="#000014"/><path d="M162.054 80.667c-.65 2.598-1.56 4.936-2.73 7.275a27.139 27.139 0 0 0 7.541-12.99c1.82-7.145.52-14.289-2.99-20.134-2.08-1.17-4.551-2.209-7.412-3.118 5.851 8.184 8.192 18.575 5.591 28.967z" fill="#EEE"/></g></g><g><g fill="#90A4AE"><path d="M67.783 48.713h.91l.78-.91-7.802-7.793-.78.91v.779z"/><path d="m61.748 41.744 1.747 1.746-3.033 3.033-1.746-1.746zM66.004 46.104l1.747 1.746-3.032 3.034-1.747-1.746z"/></g><path d="M72.203 51.31h.78l36.539-36.502V13.9L95.609 0h-.78l-36.67 36.501v.91z" fill="#CFD8DC"/><g fill="#CFD8DC"><path d="m102.057 6.774.827.827-36.943 36.943-.827-.827z"/><path d="m106.27 17.668.521-.52L92.358 2.86l-.39.39zM103.28 20.658l.391-.39L89.368 5.85l-.52.52zM86.347 8.895l14.314 14.359-.46.458L85.887 9.354zM83.273 12.048l14.336 14.336-.46.46-14.335-14.337zM94.178 29.748l.39-.39L80.265 14.94l-.52.52zM77.247 18.048l14.336 14.336-.46.46-14.335-14.337zM88.067 35.848l.39-.39L74.154 21.04l-.52.52zM84.946 38.968l.52-.52L71.033 24.16l-.39.39zM67.976 27.18l14.338 14.334-.46.46-14.337-14.335zM64.988 30.238l14.377 14.296-.458.46L64.53 30.7zM75.844 48.058l.39-.39L61.931 33.25l-.39.39z"/></g><g fill="#0D47A1"><path d="m79.992 15.584 6.521 6.527-2.574 2.572-6.522-6.527zM87.397 22.975l6.522 6.526-2.573 2.572-6.523-6.526zM86.014 9.588l6.526 6.523-2.572 2.574-6.527-6.523zM99.536 10.906l6.524 6.525-2.573 2.573-6.524-6.525zM92.14 3.485l6.523 6.526-2.573 2.572-6.523-6.526zM93.414 16.998l6.526 6.523-2.572 2.574-6.527-6.523zM67.842 27.843l6.521 6.528-2.574 2.572-6.522-6.528zM75.584 47.805l-2.86 2.858h-.26l-6.372-6.365 2.99-2.988zM58.81 36.758l2.86-2.858 6.502 6.495-2.99 3.117-6.372-6.365zM75.247 35.256l6.524 6.525-2.573 2.573-6.524-6.525zM73.964 21.751l6.53 6.52-2.572 2.575-6.53-6.52zM81.275 29.076l6.524 6.525-2.573 2.573-6.524-6.525z"/></g><g fill="#1A237E"><path d="m89.176 6.53 6.518 6.531-2.575 2.57-6.518-6.53zM90.449 20.038l6.526 6.523-2.572 2.574-6.527-6.523zM83.055 12.625l6.522 6.526-2.573 2.572-6.523-6.526zM95.349.65l6.371 6.365-2.6 2.598-6.502-6.625L95.088.65zM96.567 13.948l6.526 6.523-2.572 2.574-6.527-6.523zM109.002 14.155v.39l-2.47 2.468-6.502-6.625 2.6-2.598zM72.096 38.304l6.521 6.527-2.574 2.572-6.522-6.527zM64.697 30.886l6.524 6.525-2.573 2.573-6.524-6.525zM76.93 18.718l6.526 6.523-2.572 2.574-6.527-6.523zM70.814 24.8l6.527 6.521-2.572 2.574-6.527-6.522zM78.217 32.205l6.522 6.526-2.573 2.572-6.523-6.526zM84.333 26.116l6.524 6.525-2.573 2.573-6.524-6.525z"/></g><path d="M79.095 15.718 94.828 0h.78l13.914 13.9v.908L85.986 38.32z" opacity=".2" fill="#EEE"/><g fill="#90A4AE"><path d="M48.798 67.675v.909l-.91.91-7.802-7.925.78-.779h.91z"/><path d="m44.822 58.594 1.747 1.746-3.033 3.032-1.746-1.746zM49.175 62.863l1.746 1.747-3.033 3.032-1.746-1.746z"/></g><path d="M51.398 72.09v.908L14.859 109.5h-.91L.036 95.6v-.909L36.574 58.19h.91z" fill="#CFD8DC"/><g fill="#CFD8DC"><path d="m43.786 64.934.827.827L7.67 102.704l-.827-.827z"/><path d="m17.59 106.259-.39.39-14.303-14.42.39-.389zM6.365 88.795l14.316 14.359-.46.458L5.905 89.254zM9.331 85.757l14.318 14.357-.46.459L8.87 86.216zM26.823 97.029l-.52.52L12 83.128l.39-.389zM15.43 79.678l14.358 14.316-.459.46-14.358-14.316zM32.804 90.929l-.39.52-14.303-14.42.39-.389zM35.925 87.939l-.39.39-14.433-14.29.39-.389zM38.915 84.949l-.39.39-14.303-14.42.39-.389zM42.036 81.839l-.52.39-14.303-14.29.39-.389zM45.027 78.849l-.39.39-14.433-14.29.52-.519zM48.148 75.729l-.52.52-14.304-14.42.39-.389z"/></g><g fill="#0D47A1"><path d="m18.296 77.294 6.522 6.527-2.573 2.572-6.523-6.526zM25.69 84.706l6.525 6.525-2.573 2.573-6.524-6.525zM12.175 83.386l6.524 6.525-2.573 2.573-6.524-6.525zM13.456 96.894l6.521 6.527-2.574 2.572-6.522-6.527zM6.057 89.476l6.524 6.525-2.573 2.573-6.524-6.525zM19.579 90.785 26.1 97.31l-2.573 2.572-6.523-6.526zM30.53 65.126l6.525 6.525-2.573 2.573-6.524-6.525zM47.887 75.602l2.861-2.857v-.39l-6.371-6.365-2.991 2.988zM36.834 58.71l-2.86 2.858 6.501 6.625 3.121-3.118-6.371-6.365zM37.934 72.525l6.522 6.526-2.573 2.572-6.523-6.526zM24.397 71.21l6.528 6.521-2.572 2.575-6.528-6.522zM31.808 78.628l6.526 6.523-2.572 2.574-6.527-6.523z"/></g><g fill="#1A237E"><path d="m9.207 86.436 6.524 6.525-2.573 2.573-6.524-6.525zM22.634 87.666l6.524 6.525-2.573 2.573-6.524-6.525zM15.233 80.256l6.524 6.525-2.573 2.573-6.524-6.525zM.556 95.348l6.371 6.235 2.601-2.598-6.502-6.495-2.47 2.468zM16.604 93.848l6.526 6.523-2.572 2.574-6.527-6.523zM14.21 108.853h.39l2.34-2.468-6.502-6.495-2.6 2.598zM40.894 69.498l6.526 6.523-2.572 2.574-6.527-6.523zM33.488 62.073l6.521 6.528-2.574 2.572-6.522-6.528zM21.256 74.258l6.526 6.523-2.572 2.574-6.527-6.523zM27.38 68.16l6.527 6.521-2.572 2.574-6.527-6.522zM34.778 75.576l6.524 6.525-2.573 2.573-6.524-6.525zM28.749 81.578l6.526 6.523-2.572 2.574-6.527-6.523z"/></g><path d="m24.742 70.01 11.832-11.82h.91l13.914 13.9v.908L31.763 92.483z" opacity=".2" fill="#212121"/><g fill="#F9A825"><path d="M29.683 29.612c.39-.39 11.833 8.833 11.833 8.833l-2.99 2.988s-9.233-11.431-8.843-11.821z"/><path d="M29.052 31.093a1.43 1.43 0 1 1 2.02-2.023 1.43 1.43 0 0 1-2.02 2.023z"/></g><path d="m39.826 40.012-1.43 1.428s-5.462-6.754-7.802-10.132c-.52.26-1.17.13-1.56-.26a1.39 1.39 0 0 1-.13-1.818l10.922 10.782z" opacity=".1" fill="#212121"/><g fill="#CFD8DC"><path d="M36.055 43.904c.26.26 2.21-1.299 4.42-3.507 2.211-2.208 3.772-4.157 3.512-4.417-.26-.26-2.34 1.17-4.551 3.378-2.21 2.208-3.641 4.286-3.381 4.546z"/><path d="m43.907 35.957 2.481 2.482-7.904 7.903-2.481-2.482z"/></g><g opacity=".1" fill="#212121"><path d="m42.296 42.478-3.77 3.767-2.471-2.468c-.26-.26 1.17-2.339 3.25-4.417l2.991 3.118z"/></g><g fill="#C62828"><path d="m48.414 36.466 3.952 3.952L40.51 52.273l-3.952-3.952z"/><path d="M36.512 48.32c-.559-.559 1.622-3.645 4.87-6.893 3.248-3.248 6.334-5.429 6.893-4.87.558.558-1.623 3.644-4.871 6.892s-6.334 5.429-6.892 4.87z"/></g><g opacity=".1" fill="#212121"><path d="m46.327 46.506-5.851 5.846-3.901-3.897c-.52-.52 1.56-3.508 4.81-6.755l4.942 4.806z"/></g><g><path d="M37.049 52.713c-1.066-1.065 1.608-5.468 5.973-9.833 4.365-4.364 8.767-7.039 9.833-5.973 1.066 1.066-1.609 5.468-5.973 9.833-4.365 4.365-8.768 7.04-9.833 5.973z" fill="#CFD8DC"/><path d="M52.702 36.963 72.46 56.72 56.653 72.527 36.895 52.77z" fill="#CFD8DC"/><path d="M56.78 72.473c-1.066-1.065 1.608-5.468 5.973-9.833 4.365-4.364 8.767-7.039 9.833-5.973 1.066 1.066-1.609 5.468-5.973 9.833-4.365 4.365-8.768 7.04-9.833 5.973z" fill="#90A4AE"/></g><g opacity=".1" fill="#212121"><path d="M66.482 66.641c-4.291 4.287-8.712 6.885-9.752 5.846L36.965 52.742c-1.04-1.039 1.56-5.455 5.851-9.742l23.666 23.641z"/></g><g fill="#C62828"><path d="M59.723 69.528c-.406-.406 1.486-2.957 4.227-5.698 2.74-2.74 5.292-4.633 5.698-4.227.406.406-1.487 2.957-4.228 5.697-2.74 2.741-5.291 4.634-5.697 4.228z"/><path d="m69.602 59.697 3.951 3.952-9.833 9.833-3.951-3.952z"/></g><g opacity=".1" fill="#212121"><path d="m68.562 68.586-4.811 4.807-3.901-3.897c-.39-.39 1.43-2.858 4.03-5.586l4.682 4.676z"/></g><g><path d="M60.752 74.462c-.812-.813 1.616-4.557 5.422-8.363 3.807-3.807 7.551-6.234 8.363-5.422.812.812-1.615 4.556-5.422 8.363-3.806 3.806-7.55 6.234-8.363 5.422z" fill="#CFD8DC"/><path d="M74.023 73.91c4.811-4.806 6.372-8.443 5.982-8.833-.39-.39-4.031 1.17-8.842 5.976-4.811 4.806-6.372 8.443-5.982 8.833.39.39 4.031-1.17 8.842-5.976z" fill="#37474F"/><g fill="#212121"><path d="m72.594 69.496 4.94-4.936.911 1.948-3.9 4.027zM64.662 77.416l4.94-4.936 1.041 1.948-4.03 3.897z"/><path d="m69.473 74.306 4.94-4.936 1.041 1.948-4.031 4.027zM67.912 72.746l4.94-4.936.911 1.948-3.9 3.897z"/></g><path d="m60.76 74.43 13.784-13.77 5.981 3.897-.52.52c-.39-.39-4.031 1.169-8.842 5.975-4.811 4.806-6.372 8.443-5.982 8.833l-.52.52-3.9-5.976z" fill="#CFD8DC"/><g fill="#263238"><path d="M69.908 73.643c-.406-.406.13-1.599 1.195-2.665 1.066-1.065 2.26-1.6 2.665-1.194.406.406-.129 1.6-1.195 2.665-1.066 1.066-2.259 1.6-2.665 1.194zM66.674 78.294c-.406-.406.13-1.6 1.195-2.665 1.066-1.066 2.26-1.6 2.665-1.195.406.406-.129 1.6-1.194 2.665-1.066 1.066-2.26 1.601-2.666 1.195zM74.531 70.494c-.406-.406.13-1.6 1.195-2.665 1.066-1.066 2.26-1.6 2.665-1.195.406.406-.129 1.6-1.194 2.665-1.066 1.066-2.26 1.601-2.666 1.195zM71.427 75.276c-.355-.355.22-1.507 1.286-2.573s2.218-1.642 2.573-1.287c.356.355-.22 1.507-1.286 2.573s-2.218 1.643-2.573 1.287z"/></g><g fill="#FF8F00"><path d="M72.073 71.959c.65-.65 1.04-1.3 1.17-1.559-.39.13-.91.52-1.56 1.17-.65.649-1.04 1.298-1.17 1.558.26-.13.91-.52 1.56-1.17zM68.823 76.639c.65-.65 1.04-1.3 1.17-1.559-.39.13-.91.52-1.56 1.17-.65.649-1.04 1.298-1.17 1.558.26-.13.91-.52 1.56-1.17zM76.754 68.849c.65-.65 1.04-1.3 1.17-1.559-.39.13-.91.52-1.56 1.17-.65.649-1.04 1.298-1.17 1.558.26-.26.91-.52 1.56-1.17zM73.504 73.52c.52-.52.78-.91 1.04-1.17-.39.26-.78.52-1.17 1.04-.52.519-.78.908-1.04 1.168.26-.26.78-.65 1.17-1.039z"/></g><path d="M70.643 70.534c4.421-4.417 8.842-7.015 9.882-5.976 1.04 1.04-1.56 5.456-5.98 9.872-4.422 4.417-8.843 7.015-9.883 5.976-1.04-1.17 1.56-5.586 5.981-9.872zm3.38 3.377c4.812-4.806 6.372-8.443 5.982-8.833-.39-.39-4.03 1.169-8.842 5.975-4.81 4.806-6.371 8.444-5.981 8.833.39.39 4.03-1.169 8.842-5.975z" fill="#90A4AE"/></g><g opacity=".1" fill="#212121"><path d="M74.414 74.563c-4.291 4.287-8.712 6.885-9.752 5.846l-3.901-5.976c-.78-.779 1.56-4.546 5.331-8.313l8.322 8.443z"/></g></g></g></svg>