<?xml version="1.0" standalone="no"?><!DOCTYPE svg PUBLIC "-//W3C//DTD SVG 1.1//EN" "http://www.w3.org/Graphics/SVG/1.1/DTD/svg11.dtd"><svg t="1750002304231" class="icon" viewBox="0 0 1024 1024" version="1.1" xmlns="http://www.w3.org/2000/svg" p-id="5531" xmlns:xlink="http://www.w3.org/1999/xlink" width="256" height="256"><path d="M1024 544c0 265.12-214.944 480-480 480h-64C214.912 1024 0 809.12 0 544v-64C0 214.912 214.912 0 480 0h64c265.056 0 480 214.912 480 480v64z" fill="#085684" p-id="5532"></path><path d="M512.032 160a216.896 216.896 0 0 0-216.64 216.64 216.896 216.896 0 0 0 216.64 216.608c119.424 0 216.672-97.248 216.672-216.608A216.96 216.96 0 0 0 512.032 160z" fill="#FFFFFF" p-id="5533"></path><path d="M678.976 588.256c-46.112 36.512-103.584 59.104-166.944 59.104s-120.768-22.656-167.04-59.104c-87.584 55.776-148.544 153.696-156.928 267.104 30.656 4.16 85.248 8.64 163.104 8.64h321.568c77.92 0 132.512-4.48 163.232-8.672-8.32-113.44-69.312-211.296-156.992-267.072z" fill="#FFFFFF" p-id="5534"></path></svg>