<?xml version="1.0" standalone="no"?><!DOCTYPE svg PUBLIC "-//W3C//DTD SVG 1.1//EN" "http://www.w3.org/Graphics/SVG/1.1/DTD/svg11.dtd"><svg t="1749638497074" class="icon" viewBox="0 0 1024 1024" version="1.1" xmlns="http://www.w3.org/2000/svg" p-id="1722" width="256" height="256" xmlns:xlink="http://www.w3.org/1999/xlink"><path d="M530.1 298.1s11.1-3.5 23.6-9c12.5-5.5 23.6-12.5 23.6-12.5s-2.1-9 2.1-9h13.2s5.5 4.2 6.2 9c0.7 4.9 3.5 10.4 3.5 10.4l62.4 2.1 4.2-20.8 15.9-1.4 2.1 24.3s10.4 2.1 14.6 1.4c4.1-0.7 9-2.1 9-6.9 0-4.9 2.1-11.1 2.1-11.1s9 4.1 9 6.9c0 2.8 0.7 11.8 0.7 11.8s0.7 4.9 4.8 4.9h13.2l5.5-14.6s7.6-2.1 11.1-0.7c3.5 1.4 4.1 6.2 4.1 9s-1.4 9.7 3.5 10.4c4.8 0.7 11.8-2.1 15.2 0.7 3.5 2.8 6.3 7.6 5.6 10.4-0.7 2.8-1.4 6.2-1.4 6.2H702s-1.4 6.2-11.8 11.1c-10.4 4.9-25.6 13.2-25.6 13.2s15.9 45 29.1 56.1l-12.5 13.2s-26.3-29.1-33.2-54.7c0 0-13.9 6.9-24.2 10.4-10.4 3.5-13.2 2.1-16.7 2.8-3.5 0.7-15.9 13.9-21.5 18.7-5.5 4.8-19.4 11.8-31.2 13.8-11.8 2.1-46.4-0.7-46.4-0.7s-8.3 17.3-15.9 27.7c-7.6 10.4-15.3 40.9-15.9 49.2-0.7 8.3-4.9 15.9 0.7 20.8 5.5 4.9 17.3 0 24.2 5.6 6.9 5.5 38.8 47.1 46.4 54 7.6 6.9-1.4 9.7-1.4 15.9V596c0 2.8 22.2 18.7 31.9 35.4 9.7 16.6 22.9 41.6 23.6 52 0.7 10.4 9.7 50.6 5.5 55.4-4.1 4.9-12.5 9-12.5 9s-4.9 19.4 0 22.2c4.8 2.8 8.3 12.5 14.5 17.3 6.2 4.8 34 27.7 37.4 37.4 3.5 9.7-4.1 13.9-15.9 17.3-11.8 3.5-42.3-6.9-51.3-13.9-9-6.9-22.2-20.8-25-29.8-2.8-9-2.1-33.3-4.8-43-2.8-9.7-8.3-5.5-11.8-22.2-3.5-16.6-7.6-57.5-13.9-67.9-6.2-10.4-83.9-91.5-93.5-95.6-9.7-4.1-20.1 20.8-45.8 81.8-25.6 61-46.4 84.5-61.7 92.2-15.3 7.6-31.2 9.7-35.3 12.5-4.2 2.8-11.1 4.1-9.7 9.7 1.4 5.5 6.2 23.6 10.4 27.7 4.2 4.1 13.2 11.1 5.5 12.5-7.6 1.4-35.3 3.5-44.4-8.3-9-11.8-31.9-29.8-25.6-41.6 6.2-11.8 22.8-20.8 33.9-35.4 11.1-14.5 43-46.4 47.1-65.1 4.2-18.7 3.5-39.5 9.7-56.2 6.2-16.6 15.9-52 18.7-66.5 2.8-14.6 6.2-61 6.9-72.1 0.7-11.1 10.4-114.3 14.5-131 4.2-16.6 18-28.4 33.3-36.7 15.2-8.3 24.9-10.4 24.9-10.4l7.6 0.7s-9.7-48.5 4.1-60.3c13.9-11.8 28.4-27.7 49.2-22.9 20.8 4.9 36 9 52 28.4 15.9 19.4 4.1 26.3 0 29.1-4.2 2.8-5.5 11.1-9.7 13.2-4.2 2.1-7.6 2.1-7.6 6.2 0 4.2 3.5 15.3 3.5 18 0 2.8-3.5 6.9 0 9 3.5 2.1 13.9 2.1 13.9 2.1l4.4-8.1z m0 0" fill="#131314" p-id="1723"></path></svg>