<?xml version="1.0" standalone="no"?><!DOCTYPE svg PUBLIC "-//W3C//DTD SVG 1.1//EN" "http://www.w3.org/Graphics/SVG/1.1/DTD/svg11.dtd"><svg t="1745163196952" class="icon" viewBox="0 0 1024 1024" version="1.1" xmlns="http://www.w3.org/2000/svg" p-id="2577" data-spm-anchor-id="a313x.search_index.0.i2.58913a81ag2QCw" xmlns:xlink="http://www.w3.org/1999/xlink" width="32" height="32"><path d="M898.96 765.38h-77.17V418.11c0-154.94-114.87-283.22-263.85-305.05 0.11-1.26 0.73-2.35 0.73-3.63 0-25.16-20.4-45.56-45.56-45.56-25.16 0-45.56 20.4-45.56 45.56 0 1.29 0.63 2.37 0.73 3.63-148.98 21.83-263.85 150.11-263.85 305.05v347.26h-77.17c-21.31 0-38.58 17.28-38.58 38.59s17.28 38.59 38.58 38.59h252.75c9.46 65.27 65.25 115.75 133.1 115.75s123.64-50.48 133.1-115.75h252.75c21.31 0 38.58-17.28 38.58-38.59s-17.27-38.58-38.58-38.58zM513.11 881.13c-25.15 0-46.61-16.13-54.58-38.58h109.16c-7.97 22.45-29.43 38.58-54.58 38.58z m231.51-115.75H281.6V418.11c0-127.66 103.85-231.51 231.51-231.51s231.51 103.85 231.51 231.51v347.27z" fill="#e3d5b8" p-id="2578"></path></svg>