<?xml version="1.0" standalone="no"?><!DOCTYPE svg PUBLIC "-//W3C//DTD SVG 1.1//EN" "http://www.w3.org/Graphics/SVG/1.1/DTD/svg11.dtd"><svg t="1745075790056" class="icon" viewBox="0 0 1024 1024" version="1.1" xmlns="http://www.w3.org/2000/svg" p-id="7971" xmlns:xlink="http://www.w3.org/1999/xlink" width="32" height="32"><path d="M692.586667 103.893333c25.173333-1.706667 50.346667-1.706667 75.413333 0.32 14.4 6.506667 29.653333 8.32 45.226667 9.706667 1.706667 2.026667 5.12 6.186667 6.933333 8.32 94.4 31.466667 162.026667 129.6 157.12 229.226667 4.16 80.96-42.346667 153.173333-92.48 212.693333-105.066667 108.8-213.76 214.08-320.533333 321.28-19.093333 16.533333-35.093333 46.293333-64.853334 38.293333C393.173333 811.413333 277.546667 708.373333 170.666667 596.48 102.933333 533.333333 43.84 448.64 47.146667 352.213333c-5.12-119.253333 90.986667-229.76 208.533333-245.44 21.866667-5.973333 44.8-4.586667 67.2-3.52 16.853333 6.08 34.453333 9.6 52.053333 12.266667 56.64 21.013333 103.573333 59.733333 137.706667 109.226667 41.6-62.4 106.346667-106.026667 179.946667-120.853334m7.573333 73.813334c-2.453333 16.96-2.666667 34.026667-0.64 51.093333 72.64-3.306667 147.946667 37.226667 167.36 110.826667 1.813333 14.933333 1.92 30.4 6.933333 44.8 14.72 11.2 32.96 7.146667 49.6 3.84 21.973333-122.773333-103.573333-235.84-223.253333-210.56z" fill="#DB4100" p-id="7972"></path><path d="M700.16 177.706667c119.68-25.28 245.226667 87.786667 223.253333 210.56-16.64 3.306667-34.88 7.36-49.6-3.84-5.013333-14.4-5.12-29.866667-6.933333-44.8-19.413333-73.6-94.72-114.133333-167.36-110.826667-2.026667-17.066667-1.813333-34.133333 0.64-51.093333z" fill="#FFFFFF" p-id="7973"></path></svg>