<?xml version="1.0" standalone="no"?><!DOCTYPE svg PUBLIC "-//W3C//DTD SVG 1.1//EN" "http://www.w3.org/Graphics/SVG/1.1/DTD/svg11.dtd"><svg t="1745077113324" class="icon" viewBox="0 0 1072 1024" version="1.1" xmlns="http://www.w3.org/2000/svg" p-id="10053" xmlns:xlink="http://www.w3.org/1999/xlink" width="33.5" height="32"><path d="M1071.143405 902.174304q0 64.369181-32.687475 94.039351t-108.120109 27.658633l-343.972812 0q-154.888342 0-154.888342-140.807584l0-851.885882 569.264946 0 0 404.318919q9.051916 159.917184-150.865268 150.865268l-333.915127 0 0 291.672852q-5.028842 85.490319 80.461476 80.461476l324.863211 0q74.426866 5.028842 74.426866-61.351876l0-56.323033 75.432634 0 0 61.351876zM756.337878 520.98806l84.48455 0q74.426866 4.023074 70.403792-85.490319l0-338.943969-154.888342 0 0 424.434288zM515.959218 520.98806l155.894111 0 0-424.434288-155.894111 0 0 424.434288zM332.909359 784.499395q4.023074 125.721057-127.732594 121.697983l-183.049859 0 0-846.857039 310.782453 0 0 725.159056zM196.124849 844.845502q57.328802 0 51.294191-65.37495l0-658.778338-140.807584 0 0 724.153288 89.513393 0z" p-id="10054"></path></svg>