<?xml version="1.0" standalone="no"?><!DOCTYPE svg PUBLIC "-//W3C//DTD SVG 1.1//EN" "http://www.w3.org/Graphics/SVG/1.1/DTD/svg11.dtd"><svg t="1745075576333" class="icon" viewBox="0 0 1024 1024" version="1.1" xmlns="http://www.w3.org/2000/svg" p-id="5784" xmlns:xlink="http://www.w3.org/1999/xlink" width="32" height="32"><path d="M171.712 571.648l0.352 0.32 287.904 252.8a64 64 0 0 0 82.912 1.344l296.832-244.544a215.584 215.584 0 1 0-301.824-300.576L512 316.672l-25.888-35.616a215.584 215.584 0 1 0-314.4 290.624zM32 407.584a279.584 279.584 0 0 1 480-194.944 279.584 279.584 0 0 1 480 194.944 278.144 278.144 0 0 1-113.024 224.512l-295.36 243.392a128 128 0 0 1-165.888-2.592L129.984 620.16A278.976 278.976 0 0 1 32 407.584z" fill="#d81e06" p-id="5785"></path></svg>