<?xml version="1.0" standalone="no"?><!DOCTYPE svg PUBLIC "-//W3C//DTD SVG 1.1//EN" "http://www.w3.org/Graphics/SVG/1.1/DTD/svg11.dtd"><svg t="1761939168190" class="icon" viewBox="0 0 1024 1024" version="1.1" xmlns="http://www.w3.org/2000/svg" p-id="4729" width="128" height="128" xmlns:xlink="http://www.w3.org/1999/xlink"><path d="M791.319273 465.454545a232.727273 232.727273 0 1 1-325.818182 325.818182H226.071273c-47.104 0-82.850909-39.098182-86.202182-86.016L139.636364 698.181818V232.727273c0-47.569455 33.512727-88.948364 79.453091-92.811637L226.071273 139.636364h478.766545c47.104 0 82.850909 39.098182 86.202182 86.016L791.272727 232.727273z m-266.984728 128.698182a139.636364 139.636364 0 0 0 184.785455 184.785455zM651.636364 512c-22.621091 0-43.985455 5.399273-62.836364 14.894545l187.578182 187.578182A139.636364 139.636364 0 0 0 651.636364 512z m46.592-88.436364L698.181818 232.727273H232.727273v465.454545l190.836363 0.046546a232.727273 232.727273 0 0 1 274.618182-274.618182zM372.363636 558.545455a46.545455 46.545455 0 0 1 5.445819 92.76509L372.363636 651.636364H325.818182a46.545455 46.545455 0 0 1-5.445818-92.765091L325.818182 558.545455h46.545454z m46.545455-139.636364a46.545455 46.545455 0 0 1 5.445818 92.765091L418.909091 512H325.818182a46.545455 46.545455 0 0 1-5.445818-92.765091L325.818182 418.909091h93.090909z m93.090909-139.636364a46.545455 46.545455 0 0 1 5.445818 92.765091L512 372.363636H325.818182a46.545455 46.545455 0 0 1-5.445818-92.765091L325.818182 279.272727h186.181818z" fill="#2c2c2c" p-id="4730"></path></svg>
