<svg xmlns="http://www.w3.org/2000/svg" fill="none" viewBox="0 0 16 16"><path fill="currentColor" fill-rule="evenodd" d="M7.98.03C3.56.03-.028 3.596-.028 7.999s3.587 7.968 8.006 7.968 8.007-3.564 8.007-7.968q0-.334-.028-.661a.627.627 0 0 0-1.25.103q.024.276.024.558c0 3.705-3.02 6.714-6.753 6.714s-6.752-3.009-6.752-6.714c0-3.704 3.02-6.713 6.752-6.713.655 0 1.286.092 1.883.264A.627.627 0 0 0 10.21.344 8 8 0 0 0 7.98.031m2.839 9.98a.627.627 0 1 0-1.067-.659 1.3 1.3 0 0 1-.27.307c-.327.273-.822.433-1.356.43s-1.03-.17-1.359-.45a1.3 1.3 0 0 1-.257-.294.627.627 0 0 0-1.059.673c.14.22.312.413.503.576.6.51 1.401.743 2.164.748.762.005 1.565-.218 2.167-.72.205-.17.388-.374.534-.611M6.55 6.4c0 .553-.45 1-1.007 1a1.004 1.004 0 0 1-1.006-1c0-.553.45-1.001 1.006-1.001s1.007.448 1.007 1m4.259 1c.556 0 1.006-.447 1.006-1s-.45-1.001-1.006-1.001-1.006.448-1.006 1c0 .554.45 1.002 1.006 1.002m-.448-4.495c0-.34.276-.616.616-.616h1.385V.92a.619.619 0 0 1 1.238 0v1.37h1.383a.616.616 0 0 1 0 1.231H13.6v1.37a.619.619 0 1 1-1.238 0V3.52h-1.385a.616.616 0 0 1-.616-.615" clip-rule="evenodd"></path></svg>