<svg width="10" height="10" viewBox="0 0 10 10" fill="none" xmlns="http://www.w3.org/2000/svg">
<g clip-path="url(#clip0_5_205)">
<path d="M9.1875 5.09375L4.8125 0.71875C4.75 0.65625 4.6875 0.625 4.59375 0.625H1.21875C0.90625 0.625 0.625 0.90625 0.625 1.21875V4.59375C0.625 4.6875 0.65625 4.75 0.71875 4.8125L5.09375 9.1875C5.21875 9.3125 5.375 9.375 5.53125 9.375C5.6875 9.375 5.84375 9.3125 5.96875 9.1875L9.1875 5.9375C9.4375 5.71875 9.4375 5.3125 9.1875 5.09375ZM5.53125 8.75L1.25 4.46875V1.25H4.46875L8.75 5.53125L5.53125 8.75Z" fill="black"/>
<path d="M2.8125 1.875C2.28125 1.875 1.875 2.28125 1.875 2.8125C1.875 3.34375 2.28125 3.75 2.8125 3.75C3.34375 3.75 3.75 3.34375 3.75 2.8125C3.75 2.28125 3.34375 1.875 2.8125 1.875ZM2.8125 3.125C2.625 3.125 2.5 3 2.5 2.8125C2.5 2.625 2.625 2.5 2.8125 2.5C3 2.5 3.125 2.625 3.125 2.8125C3.125 3 3 3.125 2.8125 3.125Z" fill="black"/>
</g>
<defs>
<clipPath id="clip0_5_205">
<rect width="10" height="10" fill="white"/>
</clipPath>
</defs>
</svg>
